<svg width="44" height="44" viewBox="0 0 44 44" fill="none" xmlns="http://www.w3.org/2000/svg">
    <rect width="44" height="44" rx="22" fill="white"/>
    <path d="M17.5 17.67V16.7C17.5 14.45 19.31 12.24 21.56 12.03C24.24 11.77 26.5 13.88 26.5 16.51V17.89" stroke="#2B2B2B" stroke-width="1.5" stroke-miterlimit="10" stroke-linecap="round" stroke-linejoin="round"/>
    <path d="M18.9999 32H24.9999C29.0199 32 29.7399 30.39 29.9499 28.43L30.6999 22.43C30.9699 19.99 30.2699 18 25.9999 18H17.9999C13.7299 18 13.0299 19.99 13.2999 22.43L14.0499 28.43C14.2599 30.39 14.9799 32 18.9999 32Z" stroke="#2B2B2B" stroke-width="1.5" stroke-miterlimit="10" stroke-linecap="round" stroke-linejoin="round"/>
    <path d="M25.4955 22H25.5045" stroke="#2B2B2B" stroke-width="2" stroke-linecap="round" stroke-linejoin="round"/>
    <path d="M18.4945 22H18.5035" stroke="#2B2B2B" stroke-width="2" stroke-linecap="round" stroke-linejoin="round"/>
    <circle cx="38" cy="7" r="4" fill="#FD1600"/>
</svg>
