<svg width="22" height="22" viewBox="0 0 22 22" fill="none" xmlns="http://www.w3.org/2000/svg">
    <path d="M21.9995 11.2503C22.0005 10.5007 21.9358 9.75241 21.8062 9.01367H11.2222V13.2501H17.2842C17.1602 13.9267 16.8976 14.5717 16.5124 15.1461C16.1272 15.7206 15.6272 16.2127 15.0427 16.5927V19.3426H18.6606C20.779 17.4284 21.9995 14.5975 21.9995 11.2503Z" fill="#4285F4"/>
    <path d="M11.2226 21.9999C14.2513 21.9999 16.8015 21.0252 18.6611 19.3447L15.0432 16.5948C14.0362 17.2639 12.7393 17.6459 11.2226 17.6459C8.29528 17.6459 5.81059 15.7118 4.92209 13.1055H1.19507V15.9394C2.12919 17.7612 3.56156 19.2927 5.33227 20.3628C7.10298 21.433 9.14233 21.9998 11.2226 21.9999Z" fill="#34A853"/>
    <path d="M4.92209 13.1056C4.45237 11.7399 4.45237 10.2609 4.92209 8.89521V6.06128H1.19507C0.409252 7.59382 0 9.28524 0 11.0004C0 12.7156 0.409252 14.407 1.19507 15.9396L4.92209 13.1056Z" fill="#FBBC04"/>
    <path d="M11.2226 4.35474C12.8232 4.32912 14.3697 4.9218 15.528 6.00469L18.7313 2.86521C16.7 0.995388 14.0091 -0.0311758 11.2226 0.000721679C9.14233 0.000814603 7.10298 0.567592 5.33227 1.63778C3.56156 2.70796 2.12919 4.23944 1.19507 6.06122L4.92209 8.89515C5.81059 6.28885 8.29527 4.35474 11.2226 4.35474Z" fill="#EA4335"/>
</svg>
