<svg width="18" height="19" viewBox="0 0 18 19" fill="none" xmlns="http://www.w3.org/2000/svg">
    <path fill-rule="evenodd" clip-rule="evenodd" d="M6.02255 17.7306C4.30381 17.2659 2.50435 17.0315 0.758754 16.8167C0.382779 16.7717 0.0337127 17.023 0.0068574 17.3769C-0.0468532 17.7311 0.221857 18.0551 0.570976 18.1001C2.26286 18.3068 4.0083 18.528 5.64647 18.9754C5.99559 19.0724 6.37172 18.8727 6.47914 18.5291C6.58657 18.1857 6.37167 17.8279 6.02255 17.7306Z" fill="#2B2B2B"/>
    <path fill-rule="evenodd" clip-rule="evenodd" d="M11.2326 11.1425C8.46647 8.42288 5.35125 6.05336 2.63887 3.2608C2.39717 3 1.96748 2.98602 1.69893 3.2295C1.43038 3.47323 1.40363 3.88307 1.67218 4.14387C4.38457 6.94445 7.49978 9.32173 10.2659 12.0493C10.5344 12.3039 10.964 12.3076 11.2326 12.0571C11.4743 11.8069 11.5011 11.3971 11.2326 11.1425Z" fill="#2B2B2B"/>
    <path fill-rule="evenodd" clip-rule="evenodd" d="M16.4155 0.68197C16.4961 2.23854 16.5765 3.7951 16.6571 5.35192C16.6571 5.70846 16.9795 5.98376 17.3555 5.96643C17.7314 5.94883 17.9998 5.64533 17.9998 5.28853C17.9193 3.72938 17.8388 2.17049 17.7583 0.611593C17.7314 0.255052 17.4091 -0.0184333 17.0331 0.000972033C16.684 0.0203774 16.3887 0.325689 16.4155 0.68197Z" fill="#2B2B2B"/>
</svg>
